<?xml version="1.0"?>
<svg xmlns="http://www.w3.org/2000/svg" height="379" id="svg3405" version="1.1" viewBox="-9.6696936 -9.6696936 924.1954072 341.6625072" width="1024">
  <defs id="defs3407"></defs>
  <path d="m 904.85604,181.38063 c 0,78.0525 -63.14,140.9425 -140.9425,140.9425 -77.8075,0 -140.9425,-63.14 -140.9425,-140.9425 0,-77.8025 63.135,-140.942505 140.9425,-140.942505 77.8025,0 140.9425,62.891255 140.9425,140.942505 z" id="path3377" style="fill:#f45334;fill-opacity:1;fill-rule:nonzero;stroke:none"></path>
  <path d="M 802.9375 98.353516 C 800.2025 98.353516 796.47648 98.602656 793.99023 99.847656 C 793.24398 100.34516 792.24945 100.84219 791.50195 101.33594 C 789.76445 102.82969 788.27305 104.57 786.7793 106.3125 C 786.28055 106.80625 785.78781 107.55258 785.53906 108.29883 C 782.55531 113.27008 779.32414 117.99094 777.08789 123.21094 C 774.85164 128.67969 772.6093 133.89969 770.37305 139.61719 C 766.39805 150.30594 762.91734 161.49344 760.18359 172.67969 C 759.68484 174.41844 759.43695 176.16094 758.93945 178.14844 C 755.9607 190.82469 755.71055 202.75828 776.0918 201.01953 C 790.2618 199.77453 804.18227 196.04531 817.85352 192.07031 L 816.35938 201.76172 C 815.86188 205.99047 813.12656 225.87281 812.88281 230.10156 C 812.38406 235.32031 811.88797 241.03906 812.13672 246.50781 C 812.13672 248.49531 812.13602 250.23406 812.38477 252.22656 C 812.63477 253.46656 812.88375 255.45227 813.875 256.69727 C 815.36875 258.43602 818.59633 258.935 821.58008 258.4375 C 825.06133 257.695 827.04945 257.44523 829.7832 254.95898 C 832.01945 252.96773 833.5132 249.49031 835.00195 246.50781 C 836.99445 242.03031 838.48352 237.55805 839.72852 231.3418 C 841.71602 221.89805 845.6918 197.28859 847.18555 187.83984 C 847.4343 186.84859 847.68359 185.60523 847.68359 184.36523 C 850.16859 183.86648 852.65367 183.11984 855.13867 182.62109 C 860.60742 181.38109 866.07617 180.63352 871.54492 180.38477 C 874.77742 180.13602 878.25383 180.13477 881.48633 180.13477 C 883.22883 180.13477 890.9343 181.62914 890.68555 177.65039 C 890.9343 171.43414 883.22945 169.94602 878.75195 169.44727 C 874.0307 168.94977 869.05953 169.44781 864.58203 170.19531 C 863.09328 170.44406 861.35508 170.69141 859.86133 170.94141 C 856.87758 171.43391 853.89352 172.18148 850.66602 172.92773 C 853.15227 159.50523 856.38539 144.83891 859.11914 132.91016 C 861.10664 123.71016 860.11016 111.77695 856.62891 105.81445 C 855.63766 104.0707 850.1693 102.58187 847.18555 103.57812 C 844.9493 104.32063 841.46727 107.80141 839.72852 110.78516 C 837.48727 114.51016 834.75297 120.72594 833.76172 123.21094 C 827.79422 141.60469 824.81289 158.26109 820.83789 177.40234 C 820.58914 178.14859 820.58859 179.14422 820.33984 179.88672 C 818.59609 180.38422 816.60859 180.63406 814.87109 181.13281 C 808.65484 182.37281 802.43852 184.61297 795.97852 185.35547 C 793.24477 185.60422 789.76344 186.84898 788.27344 184.11523 C 787.27719 182.12773 788.52187 178.14766 789.01562 176.16016 C 790.50937 170.19391 792.24812 164.22727 794.48438 158.25977 C 804.18187 132.65977 807.16539 128.18344 809.65039 112.52344 C 810.14789 109.04219 810.14805 105.31648 808.6543 101.83398 C 807.4143 98.851479 805.4225 98.353516 802.9375 98.353516 z M 706.87305 107.4375 C 688.26726 107.45838 666.15258 121.56736 656.27734 134.14844 C 650.31484 141.60469 672.93234 144.33914 678.15234 139.36914 C 689.33859 124.45664 708.72789 114.26781 711.21289 137.38281 C 712.20914 146.83156 709.22609 157.02141 705.49609 165.72266 C 696.05234 187.59766 683.12211 206.48859 671.19336 226.37109 C 663.23961 239.29609 658.51797 254.46094 675.16797 259.92969 C 680.38797 261.66844 685.85742 262.66602 691.32617 262.41602 C 697.79117 262.16727 704.00555 260.67859 710.2168 259.43359 C 719.66555 257.44609 729.10789 255.70234 738.55664 253.96484 C 743.52664 253.21734 748.24961 252.22602 753.22461 251.72852 C 759.43586 251.22977 765.90023 251.22906 772.11523 251.97656 C 774.60148 252.22531 777.08727 252.96805 779.57227 253.2168 C 781.80852 253.46555 787.02859 249.74016 787.27734 247.25391 C 787.52734 244.52016 781.80852 242.27961 779.57227 241.53711 C 775.34352 239.79461 770.37289 238.80273 765.90039 238.55273 C 758.44414 238.30398 751.73094 239.05227 744.52344 240.54102 C 737.31219 242.03102 730.10398 243.52367 722.89648 244.76367 C 715.93398 246.00867 708.97742 248.24539 702.01367 248.74414 C 689.83617 249.74039 692.81984 248.49531 699.77734 235.32031 C 706.74109 222.39656 715.93422 205.99078 724.38672 190.08203 C 735.57297 169.19828 743.27805 146.83094 732.0918 123.46094 C 726.64322 111.84818 717.31044 107.42579 706.87305 107.4375 z" id="path3379" style="fill:#ffffff;fill-opacity:1;fill-rule:nonzero;stroke:none"></path>
  <path d="m 598.85979,227.86563 c -0.24875,0.24875 -0.4975,0.24875 -0.4975,0.4925 -9.6975,8.70125 -40.025,29.82875 -49.7175,9.2 -3.975,-8.4525 -3.48125,-19.63875 -3.48125,-28.83375 0,-7.705 0.7475,-15.9075 1.245,-24.11125 13.92125,-0.24875 33.80375,-12.93 34.0525,-43.99875 0,-19.63875 -18.89125,-20.87875 -23.8625,-20.87875 -40.01875,-0.24875 -48.47125,59.9025 -48.72,87.24625 l 0,2.73375 c -10.19,18.6425 -21.3775,35.2975 -31.81625,35.5475 -5.22,0.24875 -7.45625,-8.20375 -7.45625,-18.39375 0,-17.89625 5.96125,-37.78375 8.69625,-56.675 2.73375,-18.89125 0,-31.5675 -14.66375,-32.315 -34.79875,-1.7425 -54.4375,45.98625 -56.18125,48.72125 0.7475,-25.1075 -6.70875,-40.02 -29.82375,-40.5175 -16.1625,-0.49875 -32.56375,24.60875 -32.56375,24.60875 l 0,-5.21875 c 0.24375,-10.68875 -0.99625,-35.04875 -20.88375,-35.04875 l -0.24875,0 c -5.22,0 -14.415,4.97 -22.86625,9.69125 -12.4325,6.95875 -38.78,14.42 -40.26875,12.18375 -10.9375,-16.1625 -25.855,-19.88875 -35.79625,-21.13375 -21.1275,-2.485 -38.0325,5.9675 -39.2775,17.4025 -0.24875,3.73125 1.245,6.95875 2.735,8.95 -4.97125,3.2275 -9.195,8.69625 -13.17375,15.66 -4.4725,7.20625 -8.4525,20.87875 -10.68875,27.84125 -2.485,7.45625 -5.22,13.4225 -9.44375,20.87875 -5.46875,10.19125 -14.6675,25.60125 -23.12,29.83 -2.73375,1.24 -7.45625,2.9825 -9.6925,-0.49875 -2.485,-3.975 -0.74625,-15.65875 0.7425,-21.62625 1.9925,-7.95375 4.97625,-21.37625 6.9625,-29.33125 2.48625,-9.94125 4.4725,-22.12375 5.9675,-31.07375 1.7375,-12.67625 0.7425,-26.59625 -10.9375,-33.305 -15.90875,-9.2 -35.547501,-4.97625 -49.218751,6.46 -8.70125,7.21125 -14.17,16.15625 -20.635,27.5925 -1.9875,3.48125 -5.9625,11.93375 -5.9625,11.93375 0,0 3.2275,-23.12125 3.975,-29.33625 5.22,-39.2725 9.94125,-77.553755 18.145,-116.333755 1.7425,-8.69625 4.72625,-15.9075 4.4775,-25.1025 -0.24875,-4.9749997 -1.245,-8.2024997 -3.2325,-9.6962497 -6.71375,-5.9675 -22.37375,8.45125 -27.095,16.1562497 -10.44,17.4025 -15.41,38.0325 -19.8875,57.67125 -12.925,58.662505 -24.36000035,180.463755 -24.61000035,182.948755 -0.24375,5.9675 0.49875,16.65625 10.19625035,17.4025 5.21875,0.25 8.2025,0.25 16.15625,-2.9825 7.955,-3.2325 12.4275,-10.19125 16.1575,-19.39 4.22375,-9.94125 9.44375,-23.61375 13.6725,-34.8 4.22375,-11.18625 6.70875,-19.14 11.67875,-28.335 3.98,-7.46125 10.68875,-16.40625 19.39,-19.14 3.2325,-0.99625 9.94625,-2.24125 8.70125,3.2275 -0.4975,2.24125 -7.95375,29.08625 -9.6925,36.79125 -1.245,5.22 -2.485,11.43625 -3.48125,16.655 -4.97125,27.8375 13.4225,55.43 44.492501,45.9875 14.6675,-4.47875 25.85375,-14.42 34.30625,-26.34875 1.24,-1.7425 2.485,-3.73 3.72625,-5.7175 7.71,25.1025 30.32625,33.30625 41.51375,33.80375 19.38875,0.99625 60.65375,-12.42625 60.9025,-86.00625 0,-5.21875 -0.74625,-13.4225 -1.245,-17.65125 0,0.49875 16.1575,-1.9875 28.09125,-5.96125 3.2325,-0.99625 5.96625,-2.24125 8.45125,-3.48125 -6.215,28.8325 -7.46,70.84375 -7.95375,86.255 -0.4975,23.12 4.4725,26.845 12.4275,27.09375 3.73,0 8.70125,-0.74625 8.70125,-0.74625 18.3925,-5.22 18.3925,-18.39375 18.3925,-18.39375 1.245,-61.64625 33.56,-92.96875 40.7675,-92.72 2.23625,0 2.73375,2.735 2.9825,6.71375 0.25,13.6725 -2.485,27.34375 -8.95,51.455 -3.48125,12.67625 -5.7175,22.6225 -5.7175,28.83375 -0.4975,20.385 11.685,21.875 13.92125,22.12375 l 0.24875,0 c 11.93375,0.24875 14.17,-10.68875 14.17,-10.68875 25.6,-80.5375 48.2225,-91.225 48.2225,-91.225 -4.4725,20.62875 -9.44875,42.255 -9.94125,60.4 -0.49875,23.8675 8.4525,44.995 35.79125,43.75 16.16125,-0.7425 31.82125,-18.6425 43.99875,-37.53375 8.2025,35.04875 31.07375,38.28125 40.5175,38.28125 16.40625,0 32.315,-7.45625 43.2525,-19.39 3.23125,-3.48125 6.46375,-7.2075 9.19875,-10.9375 2.23625,-2.98375 7.705,-9.44375 7.95375,-13.17375 0.7475,-8.4525 -7.95375,-7.705 -12.1825,-4.4725 l 0.005,0 z m -47.23125,-87.0025 c 1.48875,-2.73375 5.22,-5.7175 7.95375,-5.7175 2.23625,0 3.98,1.7375 3.98,6.46 -0.24875,22.6225 -13.17875,25.1075 -15.415,25.605 1.245,-9.6925 0.24875,-19.39 3.48125,-26.3475 z m -317.68125,61.1475 c -1.48875,26.84625 -7.45625,53.94 -19.38875,53.4425 -10.19125,-0.24375 -15.16125,-19.385 -15.16125,-38.27625 0,-22.37375 9.4425,-49.7175 9.4425,-49.7175 0,0 7.46125,1.73875 11.1875,2.23625 3.48125,0.49875 11.435,0.99625 11.435,0.99625 1.9875,7.705 3.2325,17.89625 2.485,31.31875 z" id="path3383" style="fill:#354044;fill-opacity:1;fill-rule:nonzero;stroke:none"></path>
</svg>