<?xml version="1.0"?>
<svg xmlns="http://www.w3.org/2000/svg" data-name="Layer 1" id="Layer_1" viewBox="0 0 700 266.44">
  <defs>
    
    <linearGradient data-name="未命名的渐变 19" gradientUnits="userSpaceOnUse" id="__19" x1="550.43" x2="565.95" y1="141.52" y2="147.17">
      <stop offset="0" stop-color="#7d0042"></stop>
      <stop offset=".26" stop-color="#990047"></stop>
      <stop offset=".6" stop-color="#c60051"></stop>
    </linearGradient>
    <linearGradient data-name="未命名的渐变 23" gradientUnits="userSpaceOnUse" id="__23" x1="543.56" x2="597.15" y1="135.82" y2="116.31">
      <stop offset="0" stop-color="#cc004e"></stop>
      <stop offset=".11" stop-color="#eb004f"></stop>
      <stop offset=".2" stop-color="#ff0051"></stop>
      <stop offset=".24" stop-color="#ff0c4d"></stop>
      <stop offset=".42" stop-color="#ff3840"></stop>
      <stop offset=".58" stop-color="#ff5a36"></stop>
      <stop offset=".74" stop-color="#ff732f"></stop>
      <stop offset=".88" stop-color="#ff822b"></stop>
      <stop offset="1" stop-color="#ff882a"></stop>
    </linearGradient>
  </defs>
  <path class="cls-1" d="M531.06,137.58l-11.66-2.56c-3.11-.55-4.42-2.54-4.42-4.11,0-2.26,1.47-4.8,6.67-4.8,3.5,0,6.17,1.2,7.76,3.13.84,1.02,2.11,1.57,3.43,1.57h8.42c1.15,0,1.96-1.14,1.59-2.23-2.57-7.38-10.28-12.66-20.81-12.66-12.35,0-19.99,6.74-19.99,16.17,0,7.05,5.01,12.04,13.82,13.91l10,2.04c4.23.9,5.39,2.66,5.39,4.42,0,2.75-2.82,4.91-7.65,4.91-3.5,0-6.46-.94-8.48-2.94-.95-.94-2.13-1.62-3.47-1.62h-9.15c-1.09,0-1.9,1.04-1.62,2.09,2.29,8.74,11.55,12.84,21.56,12.84,12.73,0,21.46-5.58,21.46-16.36,0-6.58-4.23-11.97-12.84-13.82"></path>
  <path class="cls-1" d="M392.28,128.54h29.49c1.29,0,2.34,1.05,2.34,2.34v7.56c0,1.29-1.05,2.34-2.34,2.34h-29.49c-.27,0-.5.22-.5.5v22.9c0,1.29-1.05,2.34-2.34,2.34h-8.85c-1.29,0-2.34-1.05-2.34-2.34v-61.83c0-1.29,1.05-2.34,2.34-2.34h45.05c1.29,0,2.34,1.05,2.34,2.34v7.56c0,1.29-1.05,2.34-2.34,2.34h-33.37c-.27,0-.5.22-.5.5v15.32c0,.27.22.5.5.5Z"></path>
  <path class="cls-1" d="M131.3,166.46h-10.98c-1.04,0-1.95-.68-2.24-1.68l-17.98-61.81c-.43-1.49.69-2.99,2.24-2.99h9.3c1.05,0,1.97.7,2.25,1.71l11.76,42.45c.13.48.81.49.95,0l12.41-42.48c.29-1,1.2-1.68,2.24-1.68h9.42c1.04,0,1.95.68,2.24,1.68l12.41,42.48c.14.48.82.47.95,0l11.76-42.45c.28-1.01,1.2-1.71,2.25-1.71h9.3c1.56,0,2.68,1.49,2.24,2.99l-17.98,61.81c-.29,1-1.2,1.68-2.24,1.68h-10.98c-1.04,0-1.96-.7-2.24-1.7l-11.94-41.5c-.14-.48-.82-.48-.95,0l-11.94,41.5c-.29,1-1.2,1.69-2.24,1.69Z"></path>
  <rect class="cls-1" height="66.46" rx="2.34" ry="2.34" width="13.08" x="293.45" y="99.98"></rect>
  <path class="cls-1" d="M286.11,118.36v8.65c0,1.2-.98,2.24-2.17,2.33-8.52.63-18.34,5.02-18.34,15.2v19.59c0,1.29-1.05,2.34-2.34,2.34h-8.43c-1.29,0-2.34-1.05-2.34-2.34v-44.84c0-1.29,1.05-2.34,2.34-2.34h8.43c1.29,0,2.34,1.05,2.34,2.34v7.62c0,.53.69.68.94.22,3.02-5.73,9.53-10.36,16.97-11.1,1.39-.14,2.6.93,2.6,2.33Z"></path>
  <path class="cls-1" d="M243.64,141.88c0,15.5-11.93,25.87-26.09,25.87s-26.39-10.37-26.39-25.87,11.93-25.87,26.39-25.87,26.09,10.37,26.09,25.87ZM231.22,141.88c0-9.19-6.99-14.71-13.68-14.71s-13.97,5.53-13.97,14.71,6.99,14.71,13.97,14.71,13.68-5.53,13.68-14.71Z"></path>
  <rect class="cls-1" height="49.51" rx="2.34" ry="2.34" width="13.08" x="436.84" y="116.97"></rect>
  <rect class="cls-1" height="13.08" rx="2.34" ry="2.34" width="13.08" x="436.84" y="100"></rect>
  <path class="cls-1" d="M494.73,118.36v8.65c0,1.21-.99,2.24-2.2,2.33-8.51.64-18.32,5.02-18.32,15.2v19.59c0,1.29-1.05,2.34-2.34,2.34h-8.43c-1.29,0-2.34-1.05-2.34-2.34v-44.84c0-1.29,1.05-2.34,2.34-2.34h8.43c1.29,0,2.34,1.05,2.34,2.34v7.62c0,.52.69.69.94.23,3.03-5.74,9.56-10.39,17.02-11.12,1.37-.13,2.56.95,2.56,2.33Z"></path>
  <path class="cls-1" d="M364.02,166.46h-8.03c-1.29,0-2.34-1.05-2.34-2.34v-4.07c0-.48-.64-.66-.89-.25-3.13,5.19-8.67,7.96-15.12,7.96-12.32,0-23.77-10.23-23.77-25.46s11.45-25.71,23.77-25.71c5.93,0,12.09,1.96,15.11,7.31.24.43.9.25.9-.24v-21.32c0-1.29,1.05-2.34,2.34-2.34h8.03c1.29,0,2.34,1.05,2.34,2.34v61.78c0,1.29-1.05,2.34-2.34,2.34ZM353.65,142.3c0-8.92-6.89-14.55-13.78-14.55-7.76,0-13.58,5.63-13.58,14.55s5.82,14.45,13.58,14.45c6.89,0,13.78-5.53,13.78-14.45Z"></path>
  <g>
    <path class="cls-2" d="M559.9,141.39c-3.16-.39-5.97-1.26-7.73-2.96-1.22,1.77-1.52,3.48-1.07,5.18,1.24,1.57,4.22,3.85,8.95,4.98-.09-.79-.15-1.59-.15-2.4v-4.8Z"></path>
    <path class="cls-1" d="M586.68,153.83h-6.13c-4.2,0-7.64-3.44-7.64-7.64l-.06-43.85c0-1.29-1.05-2.33-2.34-2.33h-8.27c-1.29,0-2.34,1.05-2.34,2.34v43.85c0,.81.05,1.61.15,2.4,1.19,10.08,9.75,17.9,20.15,17.9h6.48c1.29,0,2.34-1.05,2.34-2.34v-7.98c0-1.29-1.05-2.34-2.34-2.34Z"></path>
    <path class="cls-3" d="M599.94,118.66c-.28-1.66-1.49-5.3-2.71-7.52-.79-1.43-2.28-1.9-3.58-1.8-15.22,1.26-32.03,9.6-38.83,16.3-5.2,5.13-8.04,12.56-3.72,17.97-1.23-4.56,2.99-9.21,15.87-14.92,6.11-2.71,14.16-5.08,30.67-7.22,1.41-.18,2.65-.78,2.31-2.81Z"></path>
  </g>
</svg>